<?xml version="1.0" encoding="UTF-8" standalone="no"?>
<!-- Created with Inkscape (http://www.inkscape.org/) -->

<svg
   xmlns:osb="http://www.openswatchbook.org/uri/2009/osb"
   xmlns:dc="http://purl.org/dc/elements/1.1/"
   xmlns:cc="http://creativecommons.org/ns#"
   xmlns:rdf="http://www.w3.org/1999/02/22-rdf-syntax-ns#"
   xmlns:svg="http://www.w3.org/2000/svg"
   xmlns="http://www.w3.org/2000/svg"
   xmlns:sodipodi="http://sodipodi.sourceforge.net/DTD/sodipodi-0.dtd"
   xmlns:inkscape="http://www.inkscape.org/namespaces/inkscape"
   width="48"
   height="48"
   id="svg2"
   version="1.1"
   inkscape:version="0.48.5 r10040"
   sodipodi:docname="3.svg">
  <defs
     id="defs4">
    <linearGradient
       id="linearGradient3839"
       osb:paint="solid">
      <stop
         style="stop-color:#000000;stop-opacity:1;"
         offset="0"
         id="stop3841" />
    </linearGradient>
  </defs>
  <sodipodi:namedview
     id="base"
     pagecolor="#ffffff"
     bordercolor="#666666"
     borderopacity="1.0"
     inkscape:pageopacity="0.0"
     inkscape:pageshadow="2"
     inkscape:zoom="7.9195959"
     inkscape:cx="33.883194"
     inkscape:cy="17.460197"
     inkscape:document-units="px"
     inkscape:current-layer="layer1"
     showgrid="false"
     inkscape:window-width="2318"
     inkscape:window-height="1781"
     inkscape:window-x="1278"
     inkscape:window-y="56"
     inkscape:window-maximized="0"
     showborder="true">
    <inkscape:grid
       type="xygrid"
       id="grid3819"
       empspacing="5"
       visible="true"
       enabled="true"
       snapvisiblegridlinesonly="true" />
  </sodipodi:namedview>
  <metadata
     id="metadata7">
    <rdf:RDF>
      <cc:Work
         rdf:about="">
        <dc:format>image/svg+xml</dc:format>
        <dc:type
           rdf:resource="http://purl.org/dc/dcmitype/StillImage" />
        <dc:title></dc:title>
      </cc:Work>
    </rdf:RDF>
  </metadata>
  <g
     inkscape:label="Layer 1"
     inkscape:groupmode="layer"
     id="layer1"
     transform="translate(0,-1004.3622)">
    <g
       id="g4140"
       transform="matrix(2.1444799,0,0,2.1444799,-288.92163,939.56603)">
      <path
         d="m 375.27166,337.93179 c 0,21.06042 -17.07285,38.13326 -38.13326,38.13326 -21.06042,0 -38.13326,-17.07284 -38.13326,-38.13326 0,-21.06041 17.07284,-38.13326 38.13326,-38.13326 21.06041,0 38.13326,17.07285 38.13326,38.13326 z"
         sodipodi:ry="38.133259"
         sodipodi:rx="38.133259"
         sodipodi:cy="337.93179"
         sodipodi:cx="337.1384"
         id="use3939-8"
         style="fill:#000000;fill-opacity:1;fill-rule:nonzero;stroke:none"
         sodipodi:type="arc"
         transform="matrix(0.13111908,0,0,0.13111914,95.79473,3.05286)" />
      <path
         d="m 375.27166,337.93179 c 0,21.06042 -17.07285,38.13326 -38.13326,38.13326 -21.06042,0 -38.13326,-17.07284 -38.13326,-38.13326 0,-21.06041 17.07284,-38.13326 38.13326,-38.13326 21.06041,0 38.13326,17.07285 38.13326,38.13326 z"
         sodipodi:ry="38.133259"
         sodipodi:rx="38.133259"
         sodipodi:cy="337.93179"
         sodipodi:cx="337.1384"
         id="use3941-1"
         style="fill:#000000;fill-opacity:1;fill-rule:nonzero;stroke:none"
         sodipodi:type="arc"
         transform="matrix(0.13111908,0,0,0.13111914,107.79474,3.05287)" />
      <path
         d="m 375.27166,337.93179 c 0,21.06042 -17.07285,38.13326 -38.13326,38.13326 -21.06042,0 -38.13326,-17.07284 -38.13326,-38.13326 0,-21.06041 17.07284,-38.13326 38.13326,-38.13326 21.06041,0 38.13326,17.07285 38.13326,38.13326 z"
         sodipodi:ry="38.133259"
         sodipodi:rx="38.133259"
         sodipodi:cy="337.93179"
         sodipodi:cx="337.1384"
         id="use3943-0"
         style="fill:#000000;fill-opacity:1;fill-rule:nonzero;stroke:none"
         sodipodi:type="arc"
         transform="matrix(0.13111908,0,0,0.13111914,95.79473,-8.94714)" />
      <path
         d="m 375.27166,337.93179 c 0,21.06042 -17.07285,38.13326 -38.13326,38.13326 -21.06042,0 -38.13326,-17.07284 -38.13326,-38.13326 0,-21.06041 17.07284,-38.13326 38.13326,-38.13326 21.06041,0 38.13326,17.07285 38.13326,38.13326 z"
         sodipodi:ry="38.133259"
         sodipodi:rx="38.133259"
         sodipodi:cy="337.93179"
         sodipodi:cx="337.1384"
         id="use3943-0-7"
         style="fill:#000000;fill-opacity:1;fill-rule:nonzero;stroke:none"
         sodipodi:type="arc"
         transform="matrix(0.13111908,0,0,0.13111914,107.79474,-8.94714)" />
    </g>
  </g>
</svg>
