<?xml version="1.0" encoding="UTF-8" standalone="no"?>
<!-- Created with Inkscape (http://www.inkscape.org/) -->

<svg
   xmlns:osb="http://www.openswatchbook.org/uri/2009/osb"
   xmlns:dc="http://purl.org/dc/elements/1.1/"
   xmlns:cc="http://creativecommons.org/ns#"
   xmlns:rdf="http://www.w3.org/1999/02/22-rdf-syntax-ns#"
   xmlns:svg="http://www.w3.org/2000/svg"
   xmlns="http://www.w3.org/2000/svg"
   xmlns:sodipodi="http://sodipodi.sourceforge.net/DTD/sodipodi-0.dtd"
   xmlns:inkscape="http://www.inkscape.org/namespaces/inkscape"
   width="48"
   height="48"
   id="svg2"
   version="1.1"
   inkscape:version="0.48.5 r10040"
   sodipodi:docname="4.svg">
  <defs
     id="defs4">
    <linearGradient
       id="linearGradient3839"
       osb:paint="solid">
      <stop
         style="stop-color:#000000;stop-opacity:1;"
         offset="0"
         id="stop3841" />
    </linearGradient>
  </defs>
  <sodipodi:namedview
     id="base"
     pagecolor="#ffffff"
     bordercolor="#666666"
     borderopacity="1.0"
     inkscape:pageopacity="0.0"
     inkscape:pageshadow="2"
     inkscape:zoom="2.8"
     inkscape:cx="30.133958"
     inkscape:cy="-44.260875"
     inkscape:document-units="px"
     inkscape:current-layer="layer1"
     showgrid="false"
     inkscape:window-width="2318"
     inkscape:window-height="1781"
     inkscape:window-x="1278"
     inkscape:window-y="56"
     inkscape:window-maximized="0"
     showborder="true">
    <inkscape:grid
       type="xygrid"
       id="grid3819"
       empspacing="5"
       visible="true"
       enabled="true"
       snapvisiblegridlinesonly="true" />
  </sodipodi:namedview>
  <metadata
     id="metadata7">
    <rdf:RDF>
      <cc:Work
         rdf:about="">
        <dc:format>image/svg+xml</dc:format>
        <dc:type
           rdf:resource="http://purl.org/dc/dcmitype/StillImage" />
        <dc:title></dc:title>
      </cc:Work>
    </rdf:RDF>
  </metadata>
  <g
     inkscape:label="Layer 1"
     inkscape:groupmode="layer"
     id="layer1"
     transform="translate(0,-1004.3622)">
    <g
       id="g4513"
       transform="matrix(1.5808378,0,0,1.5808378,124.38622,-308.63039)">
      <path
         d="m 375.27166,337.93179 a 38.133259,38.133259 0 1 1 -76.26652,0 38.133259,38.133259 0 1 1 76.26652,0 z"
         sodipodi:ry="38.133259"
         sodipodi:rx="38.133259"
         sodipodi:cy="337.93179"
         sodipodi:cx="337.1384"
         id="use3939-8-6"
         style="fill:#000000;fill-opacity:1;fill-rule:nonzero;stroke:none"
         sodipodi:type="arc"
         transform="matrix(0.13111908,0,0,0.13111914,-113.70279,811.1749)" />
      <path
         d="m 375.27166,337.93179 a 38.133259,38.133259 0 1 1 -76.26652,0 38.133259,38.133259 0 1 1 76.26652,0 z"
         sodipodi:ry="38.133259"
         sodipodi:rx="38.133259"
         sodipodi:cy="337.93179"
         sodipodi:cx="337.1384"
         id="use3941-1-0"
         style="fill:#000000;fill-opacity:1;fill-rule:nonzero;stroke:none"
         sodipodi:type="arc"
         transform="matrix(0.13111908,0,0,0.13111914,-101.7028,811.1749)" />
      <path
         d="m 375.27166,337.93179 a 38.133259,38.133259 0 1 1 -76.26652,0 38.133259,38.133259 0 1 1 76.26652,0 z"
         sodipodi:ry="38.133259"
         sodipodi:rx="38.133259"
         sodipodi:cy="337.93179"
         sodipodi:cx="337.1384"
         id="use3943-0-1"
         style="fill:#000000;fill-opacity:1;fill-rule:nonzero;stroke:none"
         sodipodi:type="arc"
         transform="matrix(0.13111908,0,0,0.13111914,-117.70279,799.73295)" />
      <path
         d="m 375.27166,337.93179 a 38.133259,38.133259 0 1 1 -76.26652,0 38.133259,38.133259 0 1 1 76.26652,0 z"
         sodipodi:ry="38.133259"
         sodipodi:rx="38.133259"
         sodipodi:cy="337.93179"
         sodipodi:cx="337.1384"
         id="use3943-0-7-0"
         style="fill:#000000;fill-opacity:1;fill-rule:nonzero;stroke:none"
         sodipodi:type="arc"
         transform="matrix(0.13111908,0,0,0.13111914,-97.70279,799.73295)" />
      <path
         d="m 375.27166,337.93179 a 38.133259,38.133259 0 1 1 -76.26652,0 38.133259,38.133259 0 1 1 76.26652,0 z"
         sodipodi:ry="38.133259"
         sodipodi:rx="38.133259"
         sodipodi:cy="337.93179"
         sodipodi:cx="337.1384"
         id="use4018"
         style="fill:#000000;fill-opacity:1;fill-rule:nonzero;stroke:none"
         sodipodi:type="arc"
         transform="matrix(0.13111908,0,0,0.13111914,-107.7028,792.17489)" />
    </g>
  </g>
</svg>
