<?xml version="1.0" encoding="UTF-8" standalone="no"?>
<!-- Created with Inkscape (http://www.inkscape.org/) -->

<svg
   xmlns:dc="http://purl.org/dc/elements/1.1/"
   xmlns:cc="http://creativecommons.org/ns#"
   xmlns:rdf="http://www.w3.org/1999/02/22-rdf-syntax-ns#"
   xmlns:svg="http://www.w3.org/2000/svg"
   xmlns="http://www.w3.org/2000/svg"
   xmlns:sodipodi="http://sodipodi.sourceforge.net/DTD/sodipodi-0.dtd"
   xmlns:inkscape="http://www.inkscape.org/namespaces/inkscape"
   width="48px"
   height="48px"
   id="svg3593"
   version="1.1"
   inkscape:version="0.48.5 r10040"
   sodipodi:docname="1.svg">
  <defs
     id="defs3595" />
  <sodipodi:namedview
     id="base"
     pagecolor="#ffffff"
     bordercolor="#666666"
     borderopacity="1.0"
     inkscape:pageopacity="0.0"
     inkscape:pageshadow="2"
     inkscape:zoom="9.8994949"
     inkscape:cx="16.379525"
     inkscape:cy="19.842636"
     inkscape:current-layer="layer1"
     showgrid="true"
     inkscape:grid-bbox="true"
     inkscape:document-units="px"
     inkscape:window-width="1110"
     inkscape:window-height="1193"
     inkscape:window-x="37"
     inkscape:window-y="43"
     inkscape:window-maximized="0" />
  <metadata
     id="metadata3598">
    <rdf:RDF>
      <cc:Work
         rdf:about="">
        <dc:format>image/svg+xml</dc:format>
        <dc:type
           rdf:resource="http://purl.org/dc/dcmitype/StillImage" />
        <dc:title></dc:title>
      </cc:Work>
    </rdf:RDF>
  </metadata>
  <g
     id="layer1"
     inkscape:label="Layer 1"
     inkscape:groupmode="layer">
    <g
       transform="matrix(1.3963363,0,0,1.3963363,-321.44938,3.354221)"
       id="g4161">
      <path
         d="m 375.27166,337.93179 c 0,21.06042 -17.07285,38.13326 -38.13326,38.13326 -21.06042,0 -38.13326,-17.07284 -38.13326,-38.13326 0,-21.06041 17.07284,-38.13326 38.13326,-38.13326 21.06041,0 38.13326,17.07285 38.13326,38.13326 z"
         sodipodi:ry="38.133259"
         sodipodi:rx="38.133259"
         sodipodi:cy="337.93179"
         sodipodi:cx="337.1384"
         id="use4052"
         style="fill:#000000;fill-opacity:1;fill-rule:nonzero;stroke:none"
         sodipodi:type="arc"
         transform="matrix(0.13111908,0,0,0.13111914,197.1998,-19.542831)" />
      <path
         d="m 375.27166,337.93179 c 0,21.06042 -17.07285,38.13326 -38.13326,38.13326 -21.06042,0 -38.13326,-17.07284 -38.13326,-38.13326 0,-21.06041 17.07284,-38.13326 38.13326,-38.13326 21.06041,0 38.13326,17.07285 38.13326,38.13326 z"
         sodipodi:ry="38.133259"
         sodipodi:rx="38.133259"
         sodipodi:cy="337.93179"
         sodipodi:cx="337.1384"
         id="use4054"
         style="fill:#000000;fill-opacity:1;fill-rule:nonzero;stroke:none"
         sodipodi:type="arc"
         transform="matrix(0.13111908,0,0,0.13111914,209.19981,-19.542821)" />
      <path
         d="m 375.27166,337.93179 c 0,21.06042 -17.07285,38.13326 -38.13326,38.13326 -21.06042,0 -38.13326,-17.07284 -38.13326,-38.13326 0,-21.06041 17.07284,-38.13326 38.13326,-38.13326 21.06041,0 38.13326,17.07285 38.13326,38.13326 z"
         sodipodi:ry="38.133259"
         sodipodi:rx="38.133259"
         sodipodi:cy="337.93179"
         sodipodi:cx="337.1384"
         id="use4056"
         style="fill:#000000;fill-opacity:1;fill-rule:nonzero;stroke:none"
         sodipodi:type="arc"
         transform="matrix(0.13111908,0,0,0.13111914,203.1998,-29.542821)" />
      <path
         d="m 375.27166,337.93179 c 0,21.06042 -17.07285,38.13326 -38.13326,38.13326 -21.06042,0 -38.13326,-17.07284 -38.13326,-38.13326 0,-21.06041 17.07284,-38.13326 38.13326,-38.13326 21.06041,0 38.13326,17.07285 38.13326,38.13326 z"
         sodipodi:ry="38.133259"
         sodipodi:rx="38.133259"
         sodipodi:cy="337.93179"
         sodipodi:cx="337.1384"
         id="use4058"
         style="fill:#000000;fill-opacity:1;fill-rule:nonzero;stroke:none"
         sodipodi:type="arc"
         transform="matrix(0.13111908,0,0,0.13111914,191.1998,-29.542821)" />
      <path
         d="m 375.27166,337.93179 c 0,21.06042 -17.07285,38.13326 -38.13326,38.13326 -21.06042,0 -38.13326,-17.07284 -38.13326,-38.13326 0,-21.06041 17.07284,-38.13326 38.13326,-38.13326 21.06041,0 38.13326,17.07285 38.13326,38.13326 z"
         sodipodi:ry="38.133259"
         sodipodi:rx="38.133259"
         sodipodi:cy="337.93179"
         sodipodi:cx="337.1384"
         id="use4060"
         style="fill:#000000;fill-opacity:1;fill-rule:nonzero;stroke:none"
         sodipodi:type="arc"
         transform="matrix(0.13111908,0,0,0.13111914,215.1998,-29.542821)" />
      <path
         d="m 375.27166,337.93179 c 0,21.06042 -17.07285,38.13326 -38.13326,38.13326 -21.06042,0 -38.13326,-17.07284 -38.13326,-38.13326 0,-21.06041 17.07284,-38.13326 38.13326,-38.13326 21.06041,0 38.13326,17.07285 38.13326,38.13326 z"
         sodipodi:ry="38.133259"
         sodipodi:rx="38.133259"
         sodipodi:cy="337.93179"
         sodipodi:cx="337.1384"
         id="use4062"
         style="fill:#000000;fill-opacity:1;fill-rule:nonzero;stroke:none"
         sodipodi:type="arc"
         transform="matrix(0.13111908,0,0,0.13111914,197.1998,-39.542832)" />
      <path
         d="m 375.27166,337.93179 c 0,21.06042 -17.07285,38.13326 -38.13326,38.13326 -21.06042,0 -38.13326,-17.07284 -38.13326,-38.13326 0,-21.06041 17.07284,-38.13326 38.13326,-38.13326 21.06041,0 38.13326,17.07285 38.13326,38.13326 z"
         sodipodi:ry="38.133259"
         sodipodi:rx="38.133259"
         sodipodi:cy="337.93179"
         sodipodi:cx="337.1384"
         id="use4064"
         style="fill:#000000;fill-opacity:1;fill-rule:nonzero;stroke:none"
         sodipodi:type="arc"
         transform="matrix(0.13111908,0,0,0.13111914,209.19981,-39.542822)" />
    </g>
  </g>
</svg>
