<?xml version="1.0" encoding="UTF-8" standalone="no"?>
<!-- Created with Inkscape (http://www.inkscape.org/) -->

<svg
   xmlns:osb="http://www.openswatchbook.org/uri/2009/osb"
   xmlns:dc="http://purl.org/dc/elements/1.1/"
   xmlns:cc="http://creativecommons.org/ns#"
   xmlns:rdf="http://www.w3.org/1999/02/22-rdf-syntax-ns#"
   xmlns:svg="http://www.w3.org/2000/svg"
   xmlns="http://www.w3.org/2000/svg"
   xmlns:sodipodi="http://sodipodi.sourceforge.net/DTD/sodipodi-0.dtd"
   xmlns:inkscape="http://www.inkscape.org/namespaces/inkscape"
   width="48"
   height="48"
   id="svg2"
   version="1.1"
   inkscape:version="0.48.5 r10040"
   sodipodi:docname="=.svg">
  <defs
     id="defs4">
    <linearGradient
       id="linearGradient3839"
       osb:paint="solid">
      <stop
         style="stop-color:#000000;stop-opacity:1;"
         offset="0"
         id="stop3841" />
    </linearGradient>
  </defs>
  <sodipodi:namedview
     id="base"
     pagecolor="#ffffff"
     bordercolor="#666666"
     borderopacity="1.0"
     inkscape:pageopacity="0.0"
     inkscape:pageshadow="2"
     inkscape:zoom="22.4"
     inkscape:cx="25.774116"
     inkscape:cy="20.829585"
     inkscape:document-units="px"
     inkscape:current-layer="layer1"
     showgrid="false"
     inkscape:window-width="2318"
     inkscape:window-height="1781"
     inkscape:window-x="1278"
     inkscape:window-y="56"
     inkscape:window-maximized="0"
     showborder="true">
    <inkscape:grid
       type="xygrid"
       id="grid3819"
       empspacing="5"
       visible="true"
       enabled="true"
       snapvisiblegridlinesonly="true" />
  </sodipodi:namedview>
  <metadata
     id="metadata7">
    <rdf:RDF>
      <cc:Work
         rdf:about="">
        <dc:format>image/svg+xml</dc:format>
        <dc:type
           rdf:resource="http://purl.org/dc/dcmitype/StillImage" />
        <dc:title />
      </cc:Work>
    </rdf:RDF>
  </metadata>
  <g
     inkscape:label="Layer 1"
     inkscape:groupmode="layer"
     id="layer1"
     transform="translate(0,-1004.3622)">
    <path
       style="fill:#000000;fill-opacity:1;stroke:none"
       d="M 24 0 C 11.758565 -4.3747876e-15 1.6604667 9.1574342 0.1875 21 L 8.28125 21 C 9.6892058 13.602097 16.192153 8 24 8 C 31.807847 8 38.310794 13.602097 39.71875 21 L 47.8125 21 C 46.339533 9.1574342 36.241435 2.1873938e-15 24 0 z M 0.09375 26 C 1.1040822 38.325033 11.414405 48 24 48 C 36.585595 48 46.895918 38.325033 47.90625 26 L 39.84375 26 C 38.852567 33.885 32.153807 40 24 40 C 15.846193 40 9.1474334 33.885 8.15625 26 L 0.09375 26 z "
       transform="translate(0,1004.3622)"
       id="path5854" />
  </g>
</svg>
