<?xml version="1.0" encoding="UTF-8" standalone="no"?>
<!-- Created with Inkscape (http://www.inkscape.org/) -->

<svg
   xmlns:osb="http://www.openswatchbook.org/uri/2009/osb"
   xmlns:dc="http://purl.org/dc/elements/1.1/"
   xmlns:cc="http://creativecommons.org/ns#"
   xmlns:rdf="http://www.w3.org/1999/02/22-rdf-syntax-ns#"
   xmlns:svg="http://www.w3.org/2000/svg"
   xmlns="http://www.w3.org/2000/svg"
   xmlns:sodipodi="http://sodipodi.sourceforge.net/DTD/sodipodi-0.dtd"
   xmlns:inkscape="http://www.inkscape.org/namespaces/inkscape"
   width="48"
   height="48"
   id="svg2"
   version="1.1"
   inkscape:version="0.48.5 r10040"
   sodipodi:docname="alpha.svg">
  <defs
     id="defs4">
    <linearGradient
       id="linearGradient3839"
       osb:paint="solid">
      <stop
         style="stop-color:#000000;stop-opacity:1;"
         offset="0"
         id="stop3841" />
    </linearGradient>
  </defs>
  <sodipodi:namedview
     id="base"
     pagecolor="#ffffff"
     bordercolor="#666666"
     borderopacity="1.0"
     inkscape:pageopacity="0.0"
     inkscape:pageshadow="2"
     inkscape:zoom="8.0000004"
     inkscape:cx="11.890092"
     inkscape:cy="3.9614954"
     inkscape:document-units="px"
     inkscape:current-layer="layer1"
     showgrid="false"
     inkscape:window-width="2318"
     inkscape:window-height="1781"
     inkscape:window-x="1278"
     inkscape:window-y="56"
     inkscape:window-maximized="0"
     showborder="true">
    <inkscape:grid
       type="xygrid"
       id="grid3819"
       empspacing="5"
       visible="true"
       enabled="true"
       snapvisiblegridlinesonly="true" />
  </sodipodi:namedview>
  <metadata
     id="metadata7">
    <rdf:RDF>
      <cc:Work
         rdf:about="">
        <dc:format>image/svg+xml</dc:format>
        <dc:type
           rdf:resource="http://purl.org/dc/dcmitype/StillImage" />
        <dc:title />
      </cc:Work>
    </rdf:RDF>
  </metadata>
  <g
     inkscape:label="Layer 1"
     inkscape:groupmode="layer"
     id="layer1"
     transform="translate(0,-1004.3622)">
    <path
       style="fill:#000000;fill-opacity:1;stroke:none"
       d="m 28.028386,1027.921 c -8.194402,1.3201 -13.220603,1.2302 -17.264172,5.3755 -2.9602946,3.0347 -1.9133676,6.6283 -0.388719,8.6532 2.792898,3.7091 7.422353,2.5625 9.817919,1.9021 10.846227,-2.9899 12.276484,-15.819 11.830141,-15.9453 l 2.192198,-0.3172 c 0.468478,0.1364 -0.92609,15.8376 -9.922839,21.2878 -7.199541,4.3615 -14.6134746,3.2477 -19.8416466,-1.4458 -5.22826002,-4.6936 -6.012443,-13.9072 0.248035,-20.7747 6.2604026,-6.8677 22.0419226,-7.8926 22.0419226,-7.8926 0.07181,-0.018 9.412084,-0.3955 13.247472,-2.9628 1.023941,-0.6854 3.754496,-2.9609 1.796579,-5.2037 -1.425649,-1.6331 -4.529787,-0.597 -5.638365,1.0324 -1.625895,2.3898 -1.496454,5.3299 -1.602615,5.3271 l -2.174641,0.2518 c -0.125973,-2.7008 0.13899,-6.2854 1.219729,-8.285 1.83017,-3.3862 8.400726,-4.5603 11.688191,-1.7871 3.327449,2.8069 4.060415,9.7854 -0.220846,14.0862 -2.15825,2.1681 -6.35085,4.978 -17.028343,6.6981 z"
       id="path6166"
       inkscape:connector-curvature="0"
       sodipodi:nodetypes="ssssccssscsssccssss" />
  </g>
</svg>
