<?xml version="1.0" encoding="UTF-8" standalone="no"?>
<!-- Created with Inkscape (http://www.inkscape.org/) -->

<svg
   xmlns:dc="http://purl.org/dc/elements/1.1/"
   xmlns:cc="http://creativecommons.org/ns#"
   xmlns:rdf="http://www.w3.org/1999/02/22-rdf-syntax-ns#"
   xmlns:svg="http://www.w3.org/2000/svg"
   xmlns="http://www.w3.org/2000/svg"
   xmlns:sodipodi="http://sodipodi.sourceforge.net/DTD/sodipodi-0.dtd"
   xmlns:inkscape="http://www.inkscape.org/namespaces/inkscape"
   width="48px"
   height="48px"
   id="svg3593"
   version="1.1"
   inkscape:version="0.48.5 r10040"
   sodipodi:docname="oct.svg">
  <defs
     id="defs3595" />
  <sodipodi:namedview
     id="base"
     pagecolor="#ffffff"
     bordercolor="#666666"
     borderopacity="1.0"
     inkscape:pageopacity="0.0"
     inkscape:pageshadow="2"
     inkscape:zoom="11.313709"
     inkscape:cx="27.430764"
     inkscape:cy="26.012543"
     inkscape:current-layer="layer1"
     showgrid="false"
     inkscape:grid-bbox="true"
     inkscape:document-units="px"
     inkscape:window-width="1843"
     inkscape:window-height="1906"
     inkscape:window-x="1813"
     inkscape:window-y="78"
     inkscape:window-maximized="0">
    <inkscape:grid
       type="xygrid"
       id="grid2988" />
  </sodipodi:namedview>
  <metadata
     id="metadata3598">
    <rdf:RDF>
      <cc:Work
         rdf:about="">
        <dc:format>image/svg+xml</dc:format>
        <dc:type
           rdf:resource="http://purl.org/dc/dcmitype/StillImage" />
        <dc:title></dc:title>
      </cc:Work>
    </rdf:RDF>
  </metadata>
  <g
     id="layer1"
     inkscape:label="Layer 1"
     inkscape:groupmode="layer">
    <path
       style="fill:#000000;fill-opacity:1;fill-rule:nonzero;stroke:none"
       d="M 17.375 0.9375 C 14.930736 1.638877 12.651105 2.7038281 10.59375 4.09375 C 10.82247 4.8084555 11.023763 5.5791677 11.21875 6.375 C 13.215062 4.9257049 15.479818 3.8013798 17.90625 3.09375 C 17.737811 2.3625063 17.568042 1.6439226 17.375 0.9375 z M 31.03125 1.0625 C 30.872216 1.7677771 30.708118 2.4865139 30.5625 3.21875 C 32.877054 3.9505247 35.028548 5.0873568 36.9375 6.5 C 37.153731 5.6887926 37.400317 4.9350967 37.65625 4.28125 C 35.648648 2.8876867 33.420363 1.7946923 31.03125 1.0625 z M 18.3125 4.96875 C 15.864726 5.69887 13.638483 6.9202264 11.6875 8.46875 C 11.937982 9.7405704 12.156563 11.073765 12.34375 12.46875 C 10.905844 12.28824 9.577694 12.068099 8.34375 11.8125 C 6.8929882 13.673464 5.7484044 15.786566 5.03125 18.09375 C 7.582296 18.549635 10.243827 18.928446 13 19.21875 C 13.090067 20.825218 13.14109 22.448071 13.15625 24.0625 C 13.171512 25.687788 13.121609 27.297238 13.0625 28.875 C 10.323129 29.139732 7.6492381 29.525013 5.09375 30.03125 C 5.8743836 32.481077 7.1159105 34.722573 8.71875 36.65625 C 9.9350248 36.417291 11.202626 36.178282 12.53125 36 C 12.364917 37.324941 12.16859 38.565495 11.9375 39.71875 C 13.805665 41.154636 15.908928 42.298483 18.21875 43 C 18.660546 40.546631 19.034126 37.990775 19.3125 35.34375 C 20.915741 35.254023 22.545136 35.202628 24.15625 35.1875 C 25.781538 35.172238 27.359738 35.222141 28.9375 35.28125 C 29.19074 37.901707 29.558476 40.452735 30.03125 42.90625 C 32.46669 42.130201 34.699071 40.901721 36.625 39.3125 C 36.41053 38.190113 36.225616 37.0281 36.0625 35.8125 C 37.286182 35.965592 38.427482 36.162013 39.5 36.375 C 40.988865 34.512325 42.162007 32.386123 42.90625 30.0625 C 40.514261 29.643104 38.011416 29.302621 35.4375 29.03125 C 35.347736 27.427657 35.265132 25.798975 35.25 24.1875 C 35.234738 22.562212 35.284641 20.984012 35.34375 19.40625 C 37.993313 19.151103 40.560374 18.789121 43.03125 18.3125 C 42.30113 15.864726 41.079774 13.638483 39.53125 11.6875 C 38.3608 11.911224 37.14721 12.110538 35.875 12.28125 C 36.041289 10.952032 36.237787 9.7152014 36.46875 8.5625 C 34.6286 7.0746492 32.516291 5.9139696 30.21875 5.15625 C 29.778698 7.6351203 29.407316 10.228517 29.125 12.90625 C 27.518184 12.996354 25.896036 13.078587 24.28125 13.09375 C 22.655962 13.109012 21.046512 13.059109 19.46875 13 C 19.202153 10.231531 18.822665 7.5410831 18.3125 4.96875 z M 4.09375 10.59375 C 2.7219383 12.624299 1.670697 14.872956 0.96875 17.28125 C 1.6655161 17.43982 2.4002735 17.573628 3.125 17.71875 C 3.823887 15.398356 4.9311375 13.235943 6.3125 11.3125 C 5.5007535 11.088531 4.737197 10.859168 4.09375 10.59375 z M 43.9375 10.625 C 43.210903 10.848558 42.429865 11.028146 41.625 11.21875 C 43.074295 13.215062 44.19862 15.479818 44.90625 17.90625 C 45.633057 17.743266 46.359296 17.5932 47.0625 17.40625 C 46.365411 14.965306 45.321212 12.681137 43.9375 10.625 z M 19.90625 19.75 C 22.796202 19.885674 25.697118 19.926784 28.59375 19.84375 C 28.459307 22.72353 28.417265 25.645048 28.5 28.53125 C 25.62022 28.396807 22.698702 28.354765 19.8125 28.4375 C 19.948174 25.547548 19.989284 22.646632 19.90625 19.75 z M 3.1875 30.4375 C 2.4579201 30.605535 1.7349254 30.77696 1.03125 30.96875 C 1.7700802 33.40477 2.8877483 35.678396 4.3125 37.71875 C 5.0293824 37.493687 5.7985627 37.287659 6.59375 37.09375 C 5.1040053 35.115308 3.9370445 32.857898 3.1875 30.4375 z M 44.8125 30.4375 C 44.09454 32.755905 42.993998 34.927682 41.59375 36.84375 C 42.400547 37.055903 43.151916 37.284822 43.8125 37.53125 C 45.194385 35.513391 46.251624 33.272069 46.96875 30.875 C 46.26471 30.718581 45.542572 30.580739 44.8125 30.4375 z M 37.0625 41.40625 C 35.08902 42.888685 32.849654 44.065508 30.4375 44.8125 C 30.600115 45.537705 30.751745 46.268061 30.9375 46.96875 C 33.370556 46.234167 35.648081 45.137514 37.6875 43.71875 C 37.467188 42.989007 37.25235 42.212005 37.0625 41.40625 z M 11.46875 41.8125 C 11.254617 42.613583 11.002586 43.353761 10.75 44 C 12.775904 45.346381 15.011027 46.378468 17.40625 47.0625 C 17.562818 46.363817 17.698686 45.63091 17.84375 44.90625 C 15.541578 44.227852 13.385315 43.162569 11.46875 41.8125 z "
       id="path3857" />
  </g>
</svg>
