<?xml version="1.0" encoding="UTF-8" standalone="no"?>
<!-- Created with Inkscape (http://www.inkscape.org/) -->

<svg
   xmlns:osb="http://www.openswatchbook.org/uri/2009/osb"
   xmlns:dc="http://purl.org/dc/elements/1.1/"
   xmlns:cc="http://creativecommons.org/ns#"
   xmlns:rdf="http://www.w3.org/1999/02/22-rdf-syntax-ns#"
   xmlns:svg="http://www.w3.org/2000/svg"
   xmlns="http://www.w3.org/2000/svg"
   xmlns:sodipodi="http://sodipodi.sourceforge.net/DTD/sodipodi-0.dtd"
   xmlns:inkscape="http://www.inkscape.org/namespaces/inkscape"
   width="48"
   height="48"
   id="svg2"
   version="1.1"
   inkscape:version="0.48.5 r10040"
   sodipodi:docname="approx=.svg">
  <defs
     id="defs4">
    <linearGradient
       id="linearGradient3839"
       osb:paint="solid">
      <stop
         style="stop-color:#000000;stop-opacity:1;"
         offset="0"
         id="stop3841" />
    </linearGradient>
  </defs>
  <sodipodi:namedview
     id="base"
     pagecolor="#ffffff"
     bordercolor="#666666"
     borderopacity="1.0"
     inkscape:pageopacity="0.0"
     inkscape:pageshadow="2"
     inkscape:zoom="11.313709"
     inkscape:cx="30.641572"
     inkscape:cy="40.674256"
     inkscape:document-units="px"
     inkscape:current-layer="layer1"
     showgrid="false"
     inkscape:window-width="2318"
     inkscape:window-height="1781"
     inkscape:window-x="1278"
     inkscape:window-y="56"
     inkscape:window-maximized="0"
     showborder="true">
    <inkscape:grid
       type="xygrid"
       id="grid3819"
       empspacing="5"
       visible="true"
       enabled="true"
       snapvisiblegridlinesonly="true" />
  </sodipodi:namedview>
  <metadata
     id="metadata7">
    <rdf:RDF>
      <cc:Work
         rdf:about="">
        <dc:format>image/svg+xml</dc:format>
        <dc:type
           rdf:resource="http://purl.org/dc/dcmitype/StillImage" />
        <dc:title></dc:title>
      </cc:Work>
    </rdf:RDF>
  </metadata>
  <g
     inkscape:label="Layer 1"
     inkscape:groupmode="layer"
     id="layer1"
     transform="translate(0,-1004.3622)">
    <path
       style="fill:#000000;fill-opacity:1;stroke:none"
       d="M 24 0 C 23.373215 0 22.739677 0.015354026 22.125 0.0625 L 22.71875 8.0625 C 23.14504 8.0283734 23.564952 8 24 8 C 24.413871 8 24.812776 8.0315859 25.21875 8.0625 L 25.875 0.0625 C 25.260323 0.015354026 24.626785 0 24 0 z M 19.4375 0.4375 C 18.249321 0.66655333 17.087714 1.0090742 15.96875 1.40625 L 18.625 8.96875 C 19.366348 8.7027156 20.119418 8.4678812 20.90625 8.3125 L 19.4375 0.4375 z M 28.5625 0.4375 L 27 8.28125 C 27.75971 8.426396 28.500831 8.6263229 29.21875 8.875 L 31.84375 1.34375 C 30.782487 0.97686659 29.685216 0.65393349 28.5625 0.4375 z M 34.375 2.375 L 30.875 9.59375 C 31.594415 9.9388376 32.281371 10.338077 32.9375 10.78125 L 37.4375 4.15625 C 36.462014 3.4953703 35.445312 2.8895528 34.375 2.375 z M 13.5 2.4375 C 12.426252 2.9614063 11.414584 3.5785649 10.4375 4.25 L 14.9375 10.84375 C 15.579678 10.402851 16.263743 10.002103 16.96875 9.65625 L 13.5 2.4375 z M 39.625 5.8125 L 34.375 11.90625 C 34.977934 12.420533 35.540342 12.967971 36.0625 13.5625 L 42.125 8.34375 C 41.347863 7.4489463 40.525366 6.5845059 39.625 5.8125 z M 8.28125 5.90625 C 7.384093 6.684814 6.5552385 7.5361682 5.78125 8.4375 L 11.84375 13.625 C 12.352618 13.034067 12.911216 12.480565 13.5 11.96875 L 8.28125 5.90625 z M 43.8125 10.46875 L 37.15625 15 C 37.611091 15.651626 38.017599 16.347159 38.375 17.0625 L 42.90625 14.875 L 45.625 13.5625 C 45.098233 12.479237 44.49007 11.453925 43.8125 10.46875 z M 4.125 10.5625 C 3.4569507 11.543436 2.8615614 12.577511 2.34375 13.65625 L 9.5625 17.125 C 9.9075873 16.409356 10.305319 15.714568 10.75 15.0625 L 4.125 10.5625 z M 46.65625 16.0625 L 39.0625 18.71875 C 39.329761 19.457423 39.568539 20.210739 39.71875 21 L 39.84375 21 L 47.59375 19.53125 C 47.370358 18.343214 47.049629 17.180261 46.65625 16.0625 z M 1.34375 16.15625 C 0.97781823 17.210584 0.69269726 18.295225 0.46875 19.40625 L 8.28125 20.96875 C 8.4270351 20.214733 8.6585968 19.491985 8.90625 18.78125 L 1.34375 16.15625 z "
       transform="translate(0,1004.3622)"
       id="path5929" />
    <path
       style="fill:#000000;fill-opacity:1;stroke:none"
       d="m 0.09375,1030.3622 c 1.0103322,12.325 11.320655,22 23.90625,22 12.585595,0 22.895918,-9.675 23.90625,-22 l -8.0625,0 c -0.991183,7.885 -7.689943,14 -15.84375,14 -8.153807,0 -14.8525666,-6.115 -15.84375,-14 l -8.0625,0 z"
       id="path5854" />
  </g>
</svg>
