<?xml version="1.0" encoding="UTF-8" standalone="no"?>
<!-- Created with Inkscape (http://www.inkscape.org/) -->

<svg
   xmlns:osb="http://www.openswatchbook.org/uri/2009/osb"
   xmlns:dc="http://purl.org/dc/elements/1.1/"
   xmlns:cc="http://creativecommons.org/ns#"
   xmlns:rdf="http://www.w3.org/1999/02/22-rdf-syntax-ns#"
   xmlns:svg="http://www.w3.org/2000/svg"
   xmlns="http://www.w3.org/2000/svg"
   xmlns:sodipodi="http://sodipodi.sourceforge.net/DTD/sodipodi-0.dtd"
   xmlns:inkscape="http://www.inkscape.org/namespaces/inkscape"
   width="48"
   height="48"
   id="svg2"
   version="1.1"
   inkscape:version="0.48.5 r10040"
   sodipodi:docname="c.svg">
  <defs
     id="defs4">
    <linearGradient
       id="linearGradient3839"
       osb:paint="solid">
      <stop
         style="stop-color:#000000;stop-opacity:1;"
         offset="0"
         id="stop3841" />
    </linearGradient>
  </defs>
  <sodipodi:namedview
     id="base"
     pagecolor="#ffffff"
     bordercolor="#666666"
     borderopacity="1.0"
     inkscape:pageopacity="0.0"
     inkscape:pageshadow="2"
     inkscape:zoom="22.627417"
     inkscape:cx="22.065355"
     inkscape:cy="22.686018"
     inkscape:document-units="px"
     inkscape:current-layer="layer1"
     showgrid="false"
     inkscape:window-width="2318"
     inkscape:window-height="1781"
     inkscape:window-x="1278"
     inkscape:window-y="56"
     inkscape:window-maximized="0"
     showborder="true">
    <inkscape:grid
       type="xygrid"
       id="grid3819"
       empspacing="5"
       visible="true"
       enabled="true"
       snapvisiblegridlinesonly="true" />
  </sodipodi:namedview>
  <metadata
     id="metadata7">
    <rdf:RDF>
      <cc:Work
         rdf:about="">
        <dc:format>image/svg+xml</dc:format>
        <dc:type
           rdf:resource="http://purl.org/dc/dcmitype/StillImage" />
        <dc:title></dc:title>
      </cc:Work>
    </rdf:RDF>
  </metadata>
  <g
     inkscape:label="Layer 1"
     inkscape:groupmode="layer"
     id="layer1"
     transform="translate(0,-1004.3622)">
    <path
       style="fill:#000000;fill-opacity:1;stroke:none"
       d="m 21.878345,1006.726 c -2.229638,-0.026 -4.333645,0.4263 -6.361022,0.9059 1.054474,3.4944 2.341687,6.9844 2.582961,11.2378 0.169943,2.996 -0.168703,4.3392 -5.127369,9.0982 -0.0072,0.01 -0.01204,0.012 -0.01928,0.019 5.636884,-1.0549 8.314541,-3.1706 8.847603,-6.4767 0.526618,-3.2661 0.360743,-4.9824 0.0771,-14.7845 z m -8.924706,21.2612 c 0.0072,0.01 0.01206,0.013 0.01928,0.019 4.958666,4.7589 5.297312,6.1022 5.127369,9.0982 -0.241274,4.2534 -1.528487,7.7434 -2.582961,11.2378 2.027377,0.4796 4.131384,0.9318 6.361022,0.9059 0.28364,-9.8021 0.449515,-11.5184 -0.0771,-14.7845 -0.533062,-3.3061 -3.210719,-5.4218 -8.847603,-6.4767 z m 0.01928,0.019 c 0.190003,0.1293 -0.838983,5.491 -2.467305,8.4621 -1.997363,3.6444 -5.2400757,5.7562 -5.2237483,5.7827 1.2406431,2.0201 2.8403828,3.4526 4.6454732,4.5491 0.3967481,0.241 3.7167201,-5.4865 4.4719911,-9.3102 0.722177,-3.6563 -0.354477,-8.4553 -1.426411,-9.4837 z m 0,0 c -1.800712,0.6525 -3.4779994,1.3846 -6.1875391,1.9661 -2.7095404,0.5814 -5.85611831,0.7552 -5.87912593,0.8481 0.11730923,1.7674 0.32118883,3.5281 1.15654933,5.2238 0,0 3.6373311,-0.5535 6.3995731,-2.5059 2.8661796,-2.0258 4.5290536,-5.521 4.5105426,-5.5321 z m 0,-0.039 c 0.01851,-0.011 -1.644363,-3.5063 -4.5105426,-5.5321 -2.762242,-1.9524 -6.3995731,-2.5059 -6.3995731,-2.5059 -0.8353605,1.6957 -1.0392401,3.4563 -1.15654933,5.2238 0.0230076,0.093 3.16958553,0.2666 5.87912593,0.8481 2.7095397,0.5814 4.3868271,1.3135 6.1875391,1.9661 z m 0,0 c 1.071934,-1.0285 2.148588,-5.8275 1.426411,-9.4837 -0.755271,-3.8237 -4.075243,-9.5512 -4.4719911,-9.3102 -1.8050904,1.0965 -3.4048301,2.529 -4.6454732,4.5491 -0.016327,0.027 3.2263853,2.1383 5.2237483,5.7827 1.628322,2.9711 2.657308,8.3328 2.467305,8.4621 z m 13.24249,-21.2419 c -0.28364,9.8021 -0.449515,11.5184 0.0771,14.7845 0.533062,3.3061 3.210719,5.4218 8.847603,6.4767 -0.0072,-0.01 -0.01206,-0.012 -0.01928,-0.019 -4.958666,-4.759 -5.297312,-6.1022 -5.127369,-9.0982 0.241274,-4.2534 1.528487,-7.7434 2.582961,-11.2378 -2.027377,-0.4796 -4.131384,-0.9319 -6.361022,-0.9059 z m 8.90543,21.2419 c -0.190003,-0.1293 0.838983,-5.491 2.467305,-8.4621 1.997363,-3.6444 5.240075,-5.7561 5.223748,-5.7827 -1.240643,-2.0201 -2.840383,-3.4526 -4.645473,-4.5491 -0.396748,-0.241 -3.71672,5.4865 -4.471991,9.3102 -0.722177,3.6562 0.354477,8.4552 1.426411,9.4837 z m 0,0 c 1.800712,-0.6525 3.477999,-1.3847 6.187539,-1.9661 2.709541,-0.5815 5.856118,-0.7552 5.879126,-0.8481 -0.117309,-1.7675 -0.321189,-3.5282 -1.156549,-5.2238 0,0 -3.637331,0.5535 -6.399573,2.5059 -2.86618,2.0258 -4.529054,5.521 -4.510543,5.5321 z m 0.01928,0.019 c -5.636884,1.0549 -8.314541,3.1706 -8.847603,6.4767 -0.526618,3.2661 -0.360743,4.9824 -0.0771,14.7845 2.229638,0.026 4.333645,-0.4263 6.361022,-0.9059 -1.054474,-3.4944 -2.341687,-6.9844 -2.582961,-11.2378 -0.169943,-2.996 0.168703,-4.3393 5.127369,-9.0982 0.0072,-0.01 0.01204,-0.013 0.01928,-0.019 z m -0.01928,0.019 c -0.01851,0.011 1.644363,3.5063 4.510543,5.5321 2.762242,1.9524 6.399573,2.5059 6.399573,2.5059 0.83536,-1.6957 1.03924,-3.4564 1.156549,-5.2238 -0.02301,-0.093 -3.169585,-0.2667 -5.879126,-0.8481 -2.70954,-0.5815 -4.386827,-1.3136 -6.187539,-1.9661 z m 0,0 c -1.071934,1.0284 -2.148588,5.8274 -1.426411,9.4837 0.755271,3.8237 4.075243,9.5512 4.471991,9.3102 1.80509,-1.0965 3.40483,-2.529 4.645473,-4.5491 0.01633,-0.027 -3.226385,-2.1383 -5.223748,-5.7827 -1.628322,-2.9711 -2.657308,-8.3328 -2.467305,-8.4621 z"
       id="path6383"
       inkscape:connector-curvature="0" />
  </g>
</svg>
