<?xml version="1.0" encoding="UTF-8" standalone="no"?>
<!-- Created with Inkscape (http://www.inkscape.org/) -->

<svg
   xmlns:osb="http://www.openswatchbook.org/uri/2009/osb"
   xmlns:dc="http://purl.org/dc/elements/1.1/"
   xmlns:cc="http://creativecommons.org/ns#"
   xmlns:rdf="http://www.w3.org/1999/02/22-rdf-syntax-ns#"
   xmlns:svg="http://www.w3.org/2000/svg"
   xmlns="http://www.w3.org/2000/svg"
   xmlns:sodipodi="http://sodipodi.sourceforge.net/DTD/sodipodi-0.dtd"
   xmlns:inkscape="http://www.inkscape.org/namespaces/inkscape"
   width="48"
   height="48"
   id="svg2"
   version="1.1"
   inkscape:version="0.48.5 r10040"
   sodipodi:docname="k.svg">
  <defs
     id="defs4">
    <linearGradient
       id="linearGradient3839"
       osb:paint="solid">
      <stop
         style="stop-color:#000000;stop-opacity:1;"
         offset="0"
         id="stop3841" />
    </linearGradient>
  </defs>
  <sodipodi:namedview
     id="base"
     pagecolor="#ffffff"
     bordercolor="#666666"
     borderopacity="1.0"
     inkscape:pageopacity="0.0"
     inkscape:pageshadow="2"
     inkscape:zoom="11.313709"
     inkscape:cx="-2.8758994"
     inkscape:cy="58.358363"
     inkscape:document-units="px"
     inkscape:current-layer="layer1"
     showgrid="false"
     inkscape:window-width="3840"
     inkscape:window-height="2108"
     inkscape:window-x="0"
     inkscape:window-y="0"
     inkscape:window-maximized="1"
     showborder="true">
    <inkscape:grid
       type="xygrid"
       id="grid3819"
       empspacing="5"
       visible="true"
       enabled="true"
       snapvisiblegridlinesonly="true" />
  </sodipodi:namedview>
  <metadata
     id="metadata7">
    <rdf:RDF>
      <cc:Work
         rdf:about="">
        <dc:format>image/svg+xml</dc:format>
        <dc:type
           rdf:resource="http://purl.org/dc/dcmitype/StillImage" />
        <dc:title />
      </cc:Work>
    </rdf:RDF>
  </metadata>
  <g
     inkscape:label="Layer 1"
     inkscape:groupmode="layer"
     id="layer1"
     transform="translate(0,-1004.3622)">
    <path
       style="fill:#000000;fill-opacity:1;stroke:none"
       d="m 22.759964,1010.5748 c -2.862808,0.1132 -5.647315,0.4282 -8.152204,1.2305 0.132453,1.6489 0.45416,5.2666 -0.153815,8.1525 -0.815187,3.8692 -2.761925,8.1618 -2.768674,8.152 0,0 6.38333,-2.1151 8.92128,-4.7681 2.502729,-2.6166 2.163311,-12.4893 2.153413,-12.7669 z m -11.074693,17.535 c 0.0069,0 1.953487,4.2832 2.768674,8.1524 0.607975,2.8854 0.286268,6.5035 0.153815,8.1519 2.504889,0.8048 5.289396,1.1183 8.152204,1.2306 0.0099,-0.2756 0.349321,-10.1498 -2.153413,-12.7665 -2.53795,-2.6534 -8.92128,-4.7684 -8.92128,-4.7684 z m 0,0 c 0,0 -5.908816,2.1657 -8.92128,3.3839 -0.4981524,0.2018 -1.1091487,0.3347 -1.84578214,0.6153 0.88962464,2.8548 2.73484024,5.3995 5.22971594,7.5371 0.7282949,-1.1527 1.425247,-2.4049 1.9995973,-3.5379 2.0957329,-4.1336 3.5377489,-7.9984 3.5377489,-7.9984 z m 0,0 c 0,0 -1.442016,-3.8643 -3.5377489,-7.9984 -0.5743503,-1.1326 -1.2713024,-2.3853 -1.9995973,-3.5375 -2.4948757,2.1371 -4.3400913,4.6823 -5.22971594,7.5367 0.73663344,0.2805 1.34762974,0.4134 1.84578214,0.6153 3.012464,1.2181 8.92128,3.3839 8.92128,3.3839 z m 13.535735,-17.535 c -0.0098,0.2757 -0.366941,10.1322 2.153413,12.7669 2.520339,2.6348 8.92128,4.7681 8.92128,4.7681 -0.0069,0 -1.953487,-4.2828 -2.768673,-8.152 -0.607976,-2.8859 -0.286268,-6.5036 -0.153815,-8.1525 -2.504889,-0.8042 -5.289397,-1.1183 -8.152205,-1.2305 z m 11.074693,17.535 c 0,0 5.908816,-2.1658 8.92128,-3.3839 0.498155,-0.2019 1.109148,-0.3348 1.845783,-0.6153 -0.889623,-2.8544 -2.734839,-5.3996 -5.229717,-7.5367 -0.728296,1.1522 -1.425249,2.4049 -1.999597,3.5375 -2.09573,4.1341 -3.537749,7.9984 -3.537749,7.9984 z m 0,0 c 0,0 1.442019,3.8648 3.537749,7.9984 0.574348,1.133 1.271301,2.3852 1.999597,3.5379 2.494878,-2.1376 4.340094,-4.6823 5.229717,-7.5371 -0.736635,-0.2806 -1.347628,-0.4135 -1.845783,-0.6153 -3.012464,-1.2182 -8.92128,-3.3839 -8.92128,-3.3839 z m 0,0 c 0,0 -6.38333,2.115 -8.92128,4.7684 -2.502728,2.6167 -2.163311,12.4888 -2.153413,12.7665 2.862808,-0.1132 5.647316,-0.4282 8.152205,-1.2306 -0.132453,-1.6484 -0.454161,-5.2665 0.153815,-8.1519 0.815186,-3.8692 2.761925,-8.1618 2.768673,-8.1524 z"
       id="path3945"
       inkscape:connector-curvature="0"
       sodipodi:nodetypes="ccscsccsccsccsccsccsccscczcscccsccsccsccsccsccsc" />
  </g>
</svg>
