<svg height="600" version="1.1" width="100%" xmlns="http://www.w3.org/2000/svg" xmlns:xlink="http://www.w3.org/1999/xlink"><polygon points="533.3539025799431,135.6212118083505,506.028578781616,16.300406036737794,436.6574720983598,-5.042619403250099,354.9477995433447,70.88331245880393,252.77665025007502,45.10109280569352,232.79006052015836,124.30501204281339,339.83526563984225,217.13216964331403,384.4833787219601,175,345.64480606395597,222.54091915955672,379.2061160679479,282.2947714475091,350.03946539369355,282.3253147038367,350.0641292168735,305.87752234244175,388.65979857033267,328.133805713432,398.1177051667838,314.97153133355386,391.4632672580492,329.75043251588767,378.83754975832295,337.0487109929067,390.0301284131138,356.41140544665217,411.0781098841791,356.41140544665194,412.534013876945,341.90092803635076,413.989917869711,356.41140544665285,431.89287571694115,356.4114054466534,441.51294428426746,339.7690878862151,428.8872267845405,332.4708094091956,446.76381105288607,314.9715313335539,450.0000000000001,282.71758681118473,453.2361889471138,314.9715313335539,438.65285561378056,340.23060561059987,477.38996005330404,362.59548328638624,513.8571490574485,341.5665931073646,501.88229483321584,314.97153133355386,518.9020723579639,338.65742623859285,549.9202746708899,320.77070703149843,549.9605346063059,282.3253147038362,520.7938839320519,282.29477144750877,505.575747047426,250.6697017618451,486.35749763519436,175,517.6407268359462,239.97395102140223,488.47406016927954,290.4920995754944,529.803698921634,314.35377763467625,578.876005357296,296.512314982795,564.5166467940851,239.97395102140223,589.8222131335838,292.5325477493874,622.360320514392,280.7025061278729,639.7026766579855,250.73717616005064,592.3844144765488,216.62325170233748,645.5368523049118,240.65648142037196,674.9251256266078,189.87737735990777,657.1624312024976,140.86194085879777,602.3192246695778,160.73655972219504" filter="url('#Siqocp4su7zv')" fill="#ffffff"/>
<image xlink:href="glyphs/1.svg" preserveAspectRatio="none" x="602.8692560460222" y="185.78971342439223" width="34.62193404031181" height="34.62193404031181" hi="there"/>
<line x1="657.1624312024976" x2="602.3192246695778" y1="140.86194085879777" y2="160.73655972219504" stroke="#333333" style="stroke-width: 2;"/>
<line x1="674.9251256266078" x2="657.1624312024976" y1="189.87737735990777" y2="140.86194085879777" stroke="#333333" style="stroke-width: 2;"/>
<line x1="645.5368523049118" x2="674.9251256266078" y1="240.65648142037196" y2="189.87737735990777" stroke="#333333" style="stroke-width: 2;"/>
<line x1="592.3844144765488" x2="645.5368523049118" y1="216.62325170233748" y2="240.65648142037196" stroke="#333333" style="stroke-width: 2;"/>
<line x1="602.3192246695778" x2="592.3844144765488" y1="160.73655972219504" y2="216.62325170233748" stroke="#333333" style="stroke-width: 2;"/>
<image xlink:href="glyphs/1.svg" preserveAspectRatio="none" x="577.1958799445756" y="230.14995951194777" width="34.62193404031181" height="34.62193404031181" hi="there"/>
<line x1="639.7026766579855" x2="592.3844144765488" y1="250.73717616005064" y2="216.62325170233748" stroke="#333333" style="stroke-width: 2;"/>
<line x1="622.360320514392" x2="639.7026766579855" y1="280.7025061278729" y2="250.73717616005064" stroke="#333333" style="stroke-width: 2;"/>
<line x1="589.8222131335838" x2="622.360320514392" y1="292.5325477493874" y2="280.7025061278729" stroke="#333333" style="stroke-width: 2;"/>
<line x1="564.5166467940851" x2="589.8222131335838" y1="239.97395102140223" y2="292.5325477493874" stroke="#333333" style="stroke-width: 2;"/>
<line x1="592.3844144765488" x2="564.5166467940851" y1="216.62325170233748" y2="239.97395102140223" stroke="#333333" style="stroke-width: 2;"/>
<image xlink:href="glyphs/2.svg" preserveAspectRatio="none" x="529.0269309563317" y="247.66298400124654" width="34.62193404031181" height="34.62193404031181" hi="there"/>
<line x1="578.876005357296" x2="564.5166467940851" y1="296.512314982795" y2="239.97395102140223" stroke="#333333" style="stroke-width: 2;"/>
<line x1="529.803698921634" x2="578.876005357296" y1="314.35377763467625" y2="296.512314982795" stroke="#333333" style="stroke-width: 2;"/>
<line x1="488.47406016927954" x2="529.803698921634" y1="290.4920995754944" y2="314.35377763467625" stroke="#333333" style="stroke-width: 2;"/>
<line x1="517.6407268359462" x2="488.47406016927954" y1="239.97395102140223" y2="290.4920995754944" stroke="#333333" style="stroke-width: 2;"/>
<line x1="564.5166467940851" x2="517.6407268359462" y1="239.97395102140223" y2="239.97395102140223" stroke="#333333" style="stroke-width: 2;"/>
<image xlink:href="glyphs/oct.svg" preserveAspectRatio="none" x="515.6811245113397" y="159.3171775562545" width="61.313546930295914" height="61.313546930295914" hi="there"/>
<line x1="602.3192246695778" x2="533.3539025799431" y1="160.73655972219504" y2="135.6212118083505" stroke="#333333" style="stroke-width: 2;"/>
<line x1="592.3844144765488" x2="602.3192246695778" y1="216.62325170233748" y2="160.73655972219504" stroke="#333333" style="stroke-width: 2;"/>
<line x1="564.5166467940851" x2="592.3844144765488" y1="239.97395102140223" y2="216.62325170233748" stroke="#333333" style="stroke-width: 2;"/>
<line x1="517.6407268359462" x2="564.5166467940851" y1="239.97395102140223" y2="239.97395102140223" stroke="#333333" style="stroke-width: 2;"/>
<line x1="486.35749763519436" x2="517.6407268359462" y1="175" y2="239.97395102140223" stroke="#333333" style="stroke-width: 2;"/>
<line x1="533.3539025799431" x2="486.35749763519436" y1="135.6212118083505" y2="175" stroke="#333333" style="stroke-width: 2;"/>
<image xlink:href="glyphs/c.svg" preserveAspectRatio="none" x="505.33895267421065" y="294.17219645124743" width="29.166666666666472" height="29.166666666666472" hi="there"/>
<line x1="549.9605346063059" x2="520.7938839320519" y1="282.3253147038362" y2="282.29477144750877" stroke="#333333" style="stroke-width: 2;"/>
<line x1="549.9202746708899" x2="549.9605346063059" y1="320.77070703149843" y2="282.3253147038362" stroke="#333333" style="stroke-width: 2;"/>
<line x1="518.9020723579639" x2="549.9202746708899" y1="338.65742623859285" y2="320.77070703149843" stroke="#333333" style="stroke-width: 2;"/>
<line x1="501.88229483321584" x2="518.9020723579639" y1="314.97153133355386" y2="338.65742623859285" stroke="#333333" style="stroke-width: 2;"/>
<line x1="520.7938839320519" x2="501.88229483321584" y1="282.29477144750877" y2="314.97153133355386" stroke="#333333" style="stroke-width: 2;"/>
<image xlink:href="glyphs/hbar.svg" preserveAspectRatio="none" x="472.88265278972244" y="312.8881980002208" width="29.166666666666472" height="29.166666666666472" hi="there"/>
<line x1="513.8571490574485" x2="501.88229483321584" y1="341.5665931073646" y2="314.97153133355386" stroke="#333333" style="stroke-width: 2;"/>
<line x1="477.38996005330404" x2="513.8571490574485" y1="362.59548328638624" y2="341.5665931073646" stroke="#333333" style="stroke-width: 2;"/>
<line x1="438.65285561378056" x2="477.38996005330404" y1="340.23060561059987" y2="362.59548328638624" stroke="#333333" style="stroke-width: 2;"/>
<line x1="453.2361889471138" x2="438.65285561378056" y1="314.9715313335539" y2="340.23060561059987" stroke="#333333" style="stroke-width: 2;"/>
<line x1="501.88229483321584" x2="453.2361889471138" y1="314.97153133355386" y2="314.9715313335539" stroke="#333333" style="stroke-width: 2;"/>
<image xlink:href="glyphs/*.svg" preserveAspectRatio="none" x="471.2580416501013" y="273.76358686059973" width="32.41588894590876" height="32.41588894590876" hi="there"/>
<line x1="520.7938839320519" x2="505.575747047426" y1="282.29477144750877" y2="250.6697017618451" stroke="#333333" style="stroke-width: 2;"/>
<line x1="501.88229483321584" x2="520.7938839320519" y1="314.97153133355386" y2="282.29477144750877" stroke="#333333" style="stroke-width: 2;"/>
<line x1="453.2361889471138" x2="501.88229483321584" y1="314.9715313335539" y2="314.97153133355386" stroke="#333333" style="stroke-width: 2;"/>
<line x1="450.0000000000001" x2="453.2361889471138" y1="282.71758681118473" y2="314.9715313335539" stroke="#333333" style="stroke-width: 2;"/>
<line x1="505.575747047426" x2="450.0000000000001" y1="250.6697017618451" y2="282.71758681118473" stroke="#333333" style="stroke-width: 2;"/>
<image xlink:href="glyphs/2.svg" preserveAspectRatio="none" x="414.60884374104324" y="336.42274750027764" width="14.583333333329946" height="14.583333333329946" hi="there"/>
<line x1="441.51294428426746" x2="428.8872267845405" y1="339.7690878862151" y2="332.4708094091956" stroke="#333333" style="stroke-width: 2;"/>
<line x1="431.89287571694115" x2="441.51294428426746" y1="356.4114054466534" y2="339.7690878862151" stroke="#333333" style="stroke-width: 2;"/>
<line x1="413.989917869711" x2="431.89287571694115" y1="356.41140544665285" y2="356.4114054466534" stroke="#333333" style="stroke-width: 2;"/>
<line x1="412.534013876945" x2="413.989917869711" y1="341.90092803635076" y2="356.41140544665285" stroke="#333333" style="stroke-width: 2;"/>
<line x1="428.8872267845405" x2="412.534013876945" y1="332.4708094091956" y2="341.90092803635076" stroke="#333333" style="stroke-width: 2;"/>
<image xlink:href="glyphs/e.svg" preserveAspectRatio="none" x="395.8758506795154" y="336.42274750027764" width="14.583333333329946" height="14.583333333329946" hi="there"/>
<line x1="411.0781098841791" x2="412.534013876945" y1="356.41140544665194" y2="341.90092803635076" stroke="#333333" style="stroke-width: 2;"/>
<line x1="390.0301284131138" x2="411.0781098841791" y1="356.41140544665217" y2="356.41140544665194" stroke="#333333" style="stroke-width: 2;"/>
<line x1="378.83754975832295" x2="390.0301284131138" y1="337.0487109929067" y2="356.41140544665217" stroke="#333333" style="stroke-width: 2;"/>
<line x1="391.4632672580492" x2="378.83754975832295" y1="329.75043251588767" y2="337.0487109929067" stroke="#333333" style="stroke-width: 2;"/>
<line x1="412.534013876945" x2="391.4632672580492" y1="341.90092803635076" y2="329.75043251588767" stroke="#333333" style="stroke-width: 2;"/>
<image xlink:href="glyphs/pow.svg" preserveAspectRatio="none" x="404.4300416404668" y="319.3675590970766" width="16.207944472954967" height="16.207944472954967" hi="there"/>
<line x1="428.8872267845405" x2="446.76381105288607" y1="332.4708094091956" y2="314.9715313335539" stroke="#333333" style="stroke-width: 2;"/>
<line x1="412.534013876945" x2="428.8872267845405" y1="341.90092803635076" y2="332.4708094091956" stroke="#333333" style="stroke-width: 2;"/>
<line x1="391.4632672580492" x2="412.534013876945" y1="329.75043251588767" y2="341.90092803635076" stroke="#333333" style="stroke-width: 2;"/>
<line x1="398.1177051667838" x2="391.4632672580492" y1="314.97153133355386" y2="329.75043251588767" stroke="#333333" style="stroke-width: 2;"/>
<line x1="446.76381105288607" x2="398.1177051667838" y1="314.9715313335539" y2="314.97153133355386" stroke="#333333" style="stroke-width: 2;"/>
<image xlink:href="glyphs/k.svg" preserveAspectRatio="none" x="371.9737417559786" y="300.65155754810326" width="16.207944472954967" height="16.207944472954967" hi="there"/>
<line x1="388.65979857033267" x2="398.1177051667838" y1="328.133805713432" y2="314.97153133355386" stroke="#333333" style="stroke-width: 2;"/>
<line x1="350.0641292168735" x2="388.65979857033267" y1="305.87752234244175" y2="328.133805713432" stroke="#333333" style="stroke-width: 2;"/>
<line x1="350.03946539369355" x2="350.0641292168735" y1="282.3253147038367" y2="305.87752234244175" stroke="#333333" style="stroke-width: 2;"/>
<line x1="379.2061160679479" x2="350.03946539369355" y1="282.2947714475091" y2="282.3253147038367" stroke="#333333" style="stroke-width: 2;"/>
<line x1="398.1177051667838" x2="379.2061160679479" y1="314.97153133355386" y2="282.2947714475091" stroke="#333333" style="stroke-width: 2;"/>
<image xlink:href="glyphs/*.svg" preserveAspectRatio="none" x="396.3260694039899" y="273.76358686059973" width="32.41588894590876" height="32.41588894590876" hi="there"/>
<line x1="446.76381105288607" x2="450.0000000000001" y1="314.9715313335539" y2="282.71758681118473" stroke="#333333" style="stroke-width: 2;"/>
<line x1="398.1177051667838" x2="446.76381105288607" y1="314.97153133355386" y2="314.9715313335539" stroke="#333333" style="stroke-width: 2;"/>
<line x1="379.2061160679479" x2="398.1177051667838" y1="282.2947714475091" y2="314.97153133355386" stroke="#333333" style="stroke-width: 2;"/>
<line x1="345.64480606395597" x2="379.2061160679479" y1="222.54091915955672" y2="282.2947714475091" stroke="#333333" style="stroke-width: 2;"/>
<line x1="450.0000000000001" x2="345.64480606395597" y1="282.71758681118473" y2="222.54091915955672" stroke="#333333" style="stroke-width: 2;"/>
<image xlink:href="glyphs/div.svg" preserveAspectRatio="none" x="419.343226534852" y="194.34322653485205" width="61.313546930295914" height="61.313546930295914" hi="there"/>
<line x1="505.575747047426" x2="486.35749763519436" y1="250.6697017618451" y2="175" stroke="#333333" style="stroke-width: 2;"/>
<line x1="450.0000000000001" x2="505.575747047426" y1="282.71758681118473" y2="250.6697017618451" stroke="#333333" style="stroke-width: 2;"/>
<line x1="345.64480606395597" x2="450.0000000000001" y1="222.54091915955672" y2="282.71758681118473" stroke="#333333" style="stroke-width: 2;"/>
<line x1="384.4833787219601" x2="345.64480606395597" y1="175" y2="222.54091915955672" stroke="#333333" style="stroke-width: 2;"/>
<line x1="486.35749763519436" x2="384.4833787219601" y1="175" y2="175" stroke="#333333" style="stroke-width: 2;"/>
<image xlink:href="glyphs/alpha.svg" preserveAspectRatio="none" x="289.00532855836434" y="81.3171775562545" width="61.313546930295914" height="61.313546930295914" hi="there"/>
<line x1="339.83526563984225" x2="384.4833787219601" y1="217.13216964331403" y2="175" stroke="#333333" style="stroke-width: 2;"/>
<line x1="232.79006052015836" x2="339.83526563984225" y1="124.30501204281339" y2="217.13216964331403" stroke="#333333" style="stroke-width: 2;"/>
<line x1="252.77665025007502" x2="232.79006052015836" y1="45.10109280569352" y2="124.30501204281339" stroke="#333333" style="stroke-width: 2;"/>
<line x1="354.9477995433447" x2="252.77665025007502" y1="70.88331245880393" y2="45.10109280569352" stroke="#333333" style="stroke-width: 2;"/>
<line x1="384.4833787219601" x2="354.9477995433447" y1="175" y2="70.88331245880393" stroke="#333333" style="stroke-width: 2;"/>
<image xlink:href="glyphs/approx=.svg" preserveAspectRatio="none" x="399.1939094505204" y="24.193909450520366" width="101.61218109895927" height="101.61218109895927" hi="there"/>
<line x1="533.3539025799431" x2="506.028578781616" y1="135.6212118083505" y2="16.300406036737794" stroke="#333333" style="stroke-width: 2;"/>
<line x1="486.35749763519436" x2="533.3539025799431" y1="175" y2="135.6212118083505" stroke="#333333" style="stroke-width: 2;"/>
<line x1="384.4833787219601" x2="486.35749763519436" y1="175" y2="175" stroke="#333333" style="stroke-width: 2;"/>
<line x1="354.9477995433447" x2="384.4833787219601" y1="70.88331245880393" y2="175" stroke="#333333" style="stroke-width: 2;"/>
<line x1="436.6574720983598" x2="354.9477995433447" y1="-5.042619403250099" y2="70.88331245880393" stroke="#333333" style="stroke-width: 2;"/>
<line x1="506.028578781616" x2="436.6574720983598" y1="16.300406036737794" y2="-5.042619403250099" stroke="#333333" style="stroke-width: 2;"/>
<defs><filter id="Siqocp4su7zv" filterUnits="userSpaceOnUse"><feGaussianBlur in="SourceAlpha" stdDeviation="3"/>
<feOffset dx="0" dy="0" result="offsetblur"/>
<feFlood flood-color="#000000"/>
<feComposite in2="offsetblur" operator="in"/>
<feComponentTransfer><feFuncA type="linear" slope="1"/>
</feComponentTransfer><feMerge><feMergeNode/>
<feMergeNode in="SourceGraphic"/>
</feMerge></filter></defs><circle cx="450" cy="75" r="10" fill="#aaaaff" style="opacity: 0;"/>
<circle cx="353.6621020235123" cy="189.97395102140246" r="10" fill="#aaaaff" style="opacity: 0;" transform="matrix(1,0,0,1,-34,-78)"/>
<circle cx="450" cy="225" r="10" fill="#aaaaff" style="opacity: 0;"/>
<circle cx="412.5340138769443" cy="289.9715313335541" r="10" fill="#aaaaff" style="opacity: 0;"/>
<circle cx="380.0777139924561" cy="308.75552978458074" r="10" fill="#aaaaff" style="opacity: 0;"/>
<circle cx="412.5340138769443" cy="327.4715313335541" r="10" fill="#aaaaff" style="opacity: 0;"/>
<circle cx="403.1675173461804" cy="343.7144141669426" r="10" fill="#aaaaff" style="opacity: 0;"/>
<circle cx="421.9005104077082" cy="343.7144141669426" r="10" fill="#aaaaff" style="opacity: 0;"/>
<circle cx="487.4659861230557" cy="289.9715313335541" r="10" fill="#aaaaff" style="opacity: 0;"/>
<circle cx="487.4659861230557" cy="327.4715313335541" r="10" fill="#aaaaff" style="opacity: 0;"/>
<circle cx="519.9222860075439" cy="308.7555297845807" r="10" fill="#aaaaff" style="opacity: 0;"/>
<circle cx="546.3378979764876" cy="189.97395102140246" r="10" fill="#aaaaff" style="opacity: 0;"/>
<circle cx="546.3378979764876" cy="264.97395102140246" r="10" fill="#aaaaff" style="opacity: 0;"/>
<circle cx="594.5068469647315" cy="247.46092653210368" r="10" fill="#aaaaff" style="opacity: 0;"/>
<circle cx="620.1802230661781" cy="203.10068044454815" r="10" fill="#aaaaff" style="opacity: 0;"/>
<circle cx="436.6574720983598" cy="-5.042619403250099" r="10" fill="#cccccc" style="opacity: 0;" class="corner"/>
<circle cx="354.9477995433447" cy="70.88331245880393" r="10" fill="#cccccc" style="opacity: 0;" class="corner"/>
<circle cx="384.4833787219601" cy="175" r="10" fill="#cccccc" style="opacity: 0;" class="corner"/>
<circle cx="486.35749763519436" cy="175" r="10" fill="#cccccc" style="opacity: 0;" class="corner"/>
<circle cx="533.3539025799431" cy="135.6212118083505" r="10" fill="#cccccc" style="opacity: 0;" class="corner"/>
<circle cx="506.028578781616" cy="16.300406036737794" r="10" fill="#cccccc" style="opacity: 0;" class="corner"/>
<circle cx="252.77665025007502" cy="45.10109280569352" r="10" fill="#cccccc" style="opacity: 0;" class="corner"/>
<circle cx="232.79006052015836" cy="124.30501204281339" r="10" fill="#cccccc" style="opacity: 0;" class="corner"/>
<circle cx="339.83526563984225" cy="217.13216964331403" r="10" fill="#cccccc" style="opacity: 0;" class="corner"/>
<circle cx="345.64480606395597" cy="222.54091915955672" r="10" fill="#cccccc" style="opacity: 0;" class="corner"/>
<circle cx="450.0000000000001" cy="282.71758681118473" r="10" fill="#cccccc" style="opacity: 0;" class="corner"/>
<circle cx="505.575747047426" cy="250.6697017618451" r="10" fill="#cccccc" style="opacity: 0;" class="corner"/>
<circle cx="379.2061160679479" cy="282.2947714475091" r="10" fill="#cccccc" style="opacity: 0;" class="corner"/>
<circle cx="398.1177051667838" cy="314.97153133355386" r="10" fill="#cccccc" style="opacity: 0;" class="corner"/>
<circle cx="446.76381105288607" cy="314.9715313335539" r="10" fill="#cccccc" style="opacity: 0;" class="corner"/>
<circle cx="350.03946539369355" cy="282.3253147038367" r="10" fill="#cccccc" style="opacity: 0;" class="corner"/>
<circle cx="350.0641292168735" cy="305.87752234244175" r="10" fill="#cccccc" style="opacity: 0;" class="corner"/>
<circle cx="388.65979857033267" cy="328.133805713432" r="10" fill="#cccccc" style="opacity: 0;" class="corner"/>
<circle cx="391.4632672580492" cy="329.75043251588767" r="10" fill="#cccccc" style="opacity: 0;" class="corner"/>
<circle cx="412.534013876945" cy="341.90092803635076" r="10" fill="#cccccc" style="opacity: 0;" class="corner"/>
<circle cx="428.8872267845405" cy="332.4708094091956" r="10" fill="#cccccc" style="opacity: 0;" class="corner"/>
<circle cx="378.83754975832295" cy="337.0487109929067" r="10" fill="#cccccc" style="opacity: 0;" class="corner"/>
<circle cx="390.0301284131138" cy="356.41140544665217" r="10" fill="#cccccc" style="opacity: 0;" class="corner"/>
<circle cx="411.0781098841791" cy="356.41140544665194" r="10" fill="#cccccc" style="opacity: 0;" class="corner"/>
<circle cx="413.989917869711" cy="356.41140544665285" r="10" fill="#cccccc" style="opacity: 0;" class="corner"/>
<circle cx="431.89287571694115" cy="356.4114054466534" r="10" fill="#cccccc" style="opacity: 0;" class="corner"/>
<circle cx="441.51294428426746" cy="339.7690878862151" r="10" fill="#cccccc" style="opacity: 0;" class="corner"/>
<circle cx="453.2361889471138" cy="314.9715313335539" r="10" fill="#cccccc" style="opacity: 0;" class="corner"/>
<circle cx="501.88229483321584" cy="314.97153133355386" r="10" fill="#cccccc" style="opacity: 0;" class="corner"/>
<circle cx="520.7938839320519" cy="282.29477144750877" r="10" fill="#cccccc" style="opacity: 0;" class="corner"/>
<circle cx="438.65285561378056" cy="340.23060561059987" r="10" fill="#cccccc" style="opacity: 0;" class="corner"/>
<circle cx="477.38996005330404" cy="362.59548328638624" r="10" fill="#cccccc" style="opacity: 0;" class="corner"/>
<circle cx="513.8571490574485" cy="341.5665931073646" r="10" fill="#cccccc" style="opacity: 0;" class="corner"/>
<circle cx="518.9020723579639" cy="338.65742623859285" r="10" fill="#cccccc" style="opacity: 0;" class="corner"/>
<circle cx="549.9202746708899" cy="320.77070703149843" r="10" fill="#cccccc" style="opacity: 0;" class="corner"/>
<circle cx="549.9605346063059" cy="282.3253147038362" r="10" fill="#cccccc" style="opacity: 0;" class="corner"/>
<circle cx="517.6407268359462" cy="239.97395102140223" r="10" fill="#cccccc" style="opacity: 0;" class="corner"/>
<circle cx="564.5166467940851" cy="239.97395102140223" r="10" fill="#cccccc" style="opacity: 0;" class="corner"/>
<circle cx="592.3844144765488" cy="216.62325170233748" r="10" fill="#cccccc" style="opacity: 0;" class="corner"/>
<circle cx="602.3192246695778" cy="160.73655972219504" r="10" fill="#cccccc" style="opacity: 0;" class="corner"/>
<circle cx="488.47406016927954" cy="290.4920995754944" r="10" fill="#cccccc" style="opacity: 0;" class="corner"/>
<circle cx="529.803698921634" cy="314.35377763467625" r="10" fill="#cccccc" style="opacity: 0;" class="corner"/>
<circle cx="578.876005357296" cy="296.512314982795" r="10" fill="#cccccc" style="opacity: 0;" class="corner"/>
<circle cx="589.8222131335838" cy="292.5325477493874" r="10" fill="#cccccc" style="opacity: 0;" class="corner"/>
<circle cx="622.360320514392" cy="280.7025061278729" r="10" fill="#cccccc" style="opacity: 0;" class="corner"/>
<circle cx="639.7026766579855" cy="250.73717616005064" r="10" fill="#cccccc" style="opacity: 0;" class="corner"/>
<circle cx="645.5368523049118" cy="240.65648142037196" r="10" fill="#cccccc" style="opacity: 0;" class="corner"/>
<circle cx="674.9251256266078" cy="189.87737735990777" r="10" fill="#cccccc" style="opacity: 0;" class="corner"/>
<circle cx="657.1624312024976" cy="140.86194085879777" r="10" fill="#cccccc" style="opacity: 0;" class="corner"/>
</svg>
