<svg height="600" version="1.1" width="100%" xmlns="http://www.w3.org/2000/svg" xmlns:xlink="http://www.w3.org/1999/xlink"><polygon points="471.86347344224373,78.69463854616677,389.6495680396027,9.078576146112699,300.6526017406518,62.9274912559855,295.36006494091333,163.79229978887435,233.9553509550496,283.0531940669328,245.23086970603447,351.56276990689634,305.46641233666156,390.71387174015456,389.70665331492086,385.49670248508494,380.2841705018285,286.2564331224142,409.37232593891827,382.02163884940364,491.9048042168806,374.28873208090954,520.2295000934603,321.3225877842591,465.86420091125876,234.58307613730173,430.58949661576025,180.57028697973433,475.4398593145464,227.1977597439852,542.9795929401596,300.6744564137502,609.5505162068812,270.05249141787795,636.7741031822059,185.7793720534763,537.7991403717236,182.4383223948898,640.8359653987015,170.52323781950756,664.4062877443935,100.5336223777431,603.4695386112792,49.149973490605944,542.5953581313493,88.42683794705329" filter="url('#Siqvvttfx1jx3')" fill="#ffffff"/>
<image xlink:href="glyphs/4.svg" preserveAspectRatio="none" x="546.282454389586" y="71.94894194365955" width="67.12423525100367" height="67.12423525100367" hi="there"/>
<line x1="603.4695386112792" x2="542.5953581313493" y1="49.149973490605944" y2="88.42683794705329" stroke="#333333" style="stroke-width: 2;"/>
<line x1="664.4062877443935" x2="603.4695386112792" y1="100.5336223777431" y2="49.149973490605944" stroke="#333333" style="stroke-width: 2;"/>
<line x1="640.8359653987015" x2="664.4062877443935" y1="170.52323781950756" y2="100.5336223777431" stroke="#333333" style="stroke-width: 2;"/>
<line x1="537.7991403717236" x2="640.8359653987015" y1="182.4383223948898" y2="170.52323781950756" stroke="#333333" style="stroke-width: 2;"/>
<line x1="542.5953581313493" x2="537.7991403717236" y1="88.42683794705329" y2="182.4383223948898" stroke="#333333" style="stroke-width: 2;"/>
<image xlink:href="glyphs/1.svg" preserveAspectRatio="none" x="513.3698546206095" y="168.38094504160634" width="67.12423525100367" height="67.12423525100367" hi="there"/>
<line x1="636.7741031822059" x2="537.7991403717236" y1="185.7793720534763" y2="182.4383223948898" stroke="#333333" style="stroke-width: 2;"/>
<line x1="609.5505162068812" x2="636.7741031822059" y1="270.05249141787795" y2="185.7793720534763" stroke="#333333" style="stroke-width: 2;"/>
<line x1="542.9795929401596" x2="609.5505162068812" y1="300.6744564137502" y2="270.05249141787795" stroke="#333333" style="stroke-width: 2;"/>
<line x1="475.4398593145464" x2="542.9795929401596" y1="227.1977597439852" y2="300.6744564137502" stroke="#333333" style="stroke-width: 2;"/>
<line x1="537.7991403717236" x2="475.4398593145464" y1="182.4383223948898" y2="227.1977597439852" stroke="#333333" style="stroke-width: 2;"/>
<image xlink:href="glyphs/oct.svg" preserveAspectRatio="none" x="463.2563533715754" y="103.26744379257215" width="59.35123774907196" height="59.35123774907196" hi="there"/>
<line x1="542.5953581313493" x2="471.86347344224373" y1="88.42683794705329" y2="78.69463854616677" stroke="#333333" style="stroke-width: 2;"/>
<line x1="537.7991403717236" x2="542.5953581313493" y1="182.4383223948898" y2="88.42683794705329" stroke="#333333" style="stroke-width: 2;"/>
<line x1="475.4398593145464" x2="537.7991403717236" y1="227.1977597439852" y2="182.4383223948898" stroke="#333333" style="stroke-width: 2;"/>
<line x1="430.58949661576025" x2="475.4398593145464" y1="180.57028697973433" y2="227.1977597439852" stroke="#333333" style="stroke-width: 2;"/>
<line x1="471.86347344224373" x2="430.58949661576025" y1="78.69463854616677" y2="180.57028697973433" stroke="#333333" style="stroke-width: 2;"/>
<image xlink:href="glyphs/2.svg" preserveAspectRatio="none" x="393.4279095456724" y="264.30294445889194" width="79.28023641643239" height="79.28023641643239" hi="there"/>
<line x1="520.2295000934603" x2="465.86420091125876" y1="321.3225877842591" y2="234.58307613730173" stroke="#333333" style="stroke-width: 2;"/>
<line x1="491.9048042168806" x2="520.2295000934603" y1="374.28873208090954" y2="321.3225877842591" stroke="#333333" style="stroke-width: 2;"/>
<line x1="409.37232593891827" x2="491.9048042168806" y1="382.02163884940364" y2="374.28873208090954" stroke="#333333" style="stroke-width: 2;"/>
<line x1="380.2841705018285" x2="409.37232593891827" y1="286.2564331224142" y2="382.02163884940364" stroke="#333333" style="stroke-width: 2;"/>
<line x1="465.86420091125876" x2="380.2841705018285" y1="234.58307613730173" y2="286.2564331224142" stroke="#333333" style="stroke-width: 2;"/>
<image xlink:href="glyphs/6.svg" preserveAspectRatio="none" x="315.515309776696" y="283.87094136094515" width="79.28023641643239" height="79.28023641643239" hi="there"/>
<line x1="389.70665331492086" x2="380.2841705018285" y1="385.49670248508494" y2="286.2564331224142" stroke="#333333" style="stroke-width: 2;"/>
<line x1="305.46641233666156" x2="389.70665331492086" y1="390.71387174015456" y2="385.49670248508494" stroke="#333333" style="stroke-width: 2;"/>
<line x1="245.23086970603447" x2="305.46641233666156" y1="351.56276990689634" y2="390.71387174015456" stroke="#333333" style="stroke-width: 2;"/>
<line x1="233.9553509550496" x2="245.23086970603447" y1="283.0531940669328" y2="351.56276990689634" stroke="#333333" style="stroke-width: 2;"/>
<line x1="380.2841705018285" x2="233.9553509550496" y1="286.2564331224142" y2="283.0531940669328" stroke="#333333" style="stroke-width: 2;"/>
<image xlink:href="glyphs/*.svg" preserveAspectRatio="none" x="326.3924088793526" y="175.26744379257215" width="59.35123774907196" height="59.35123774907196" hi="there"/>
<line x1="465.86420091125876" x2="430.58949661576025" y1="234.58307613730173" y2="180.57028697973433" stroke="#333333" style="stroke-width: 2;"/>
<line x1="380.2841705018285" x2="465.86420091125876" y1="286.2564331224142" y2="234.58307613730173" stroke="#333333" style="stroke-width: 2;"/>
<line x1="233.9553509550496" x2="380.2841705018285" y1="283.0531940669328" y2="286.2564331224142" stroke="#333333" style="stroke-width: 2;"/>
<line x1="295.36006494091333" x2="233.9553509550496" y1="163.79229978887435" y2="283.0531940669328" stroke="#333333" style="stroke-width: 2;"/>
<line x1="430.58949661576025" x2="295.36006494091333" y1="180.57028697973433" y2="163.79229978887435" stroke="#333333" style="stroke-width: 2;"/>
<image xlink:href="glyphs/=.svg" preserveAspectRatio="none" x="340.0920311903854" y="46.09203119038542" width="83.81593761922916" height="83.81593761922916" hi="there"/>
<line x1="471.86347344224373" x2="389.6495680396027" y1="78.69463854616677" y2="9.078576146112699" stroke="#333333" style="stroke-width: 2;"/>
<line x1="430.58949661576025" x2="471.86347344224373" y1="180.57028697973433" y2="78.69463854616677" stroke="#333333" style="stroke-width: 2;"/>
<line x1="295.36006494091333" x2="430.58949661576025" y1="163.79229978887435" y2="180.57028697973433" stroke="#333333" style="stroke-width: 2;"/>
<line x1="300.6526017406518" x2="295.36006494091333" y1="62.9274912559855" y2="163.79229978887435" stroke="#333333" style="stroke-width: 2;"/>
<line x1="389.6495680396027" x2="300.6526017406518" y1="9.078576146112699" y2="62.9274912559855" stroke="#333333" style="stroke-width: 2;"/>
<defs><filter id="Siqvvttfx1jx3" filterUnits="userSpaceOnUse"><feGaussianBlur in="SourceAlpha" stdDeviation="3"/>
<feOffset dx="0" dy="0" result="offsetblur"/>
<feFlood flood-color="#000000"/>
<feComposite in2="offsetblur" operator="in"/>
<feComponentTransfer><feFuncA type="linear" slope="1"/>
</feComponentTransfer><feMerge><feMergeNode/>
<feMergeNode in="SourceGraphic"/>
</feMerge></filter></defs><circle cx="450" cy="75" r="10" fill="#aaaaff" style="opacity: 0;" transform="matrix(1,0,0,1,-68,13)"/>
<circle cx="375.0680277538886" cy="204.94306266710814" r="10" fill="#aaaaff" style="opacity: 0;" transform="matrix(1,0,0,1,-19,0)"/>
<circle cx="310.1554279849122" cy="242.5110595691614" r="10" fill="#aaaaff" style="opacity: 0;" transform="matrix(1,0,0,1,45,81)"/>
<circle cx="375.0680277538886" cy="279.94306266710817" r="10" fill="#aaaaff" style="opacity: 0;" transform="matrix(1,0,0,1,58,24)"/>
<circle cx="524.9319722461114" cy="204.94306266710814" r="10" fill="#aaaaff" style="opacity: 0;" transform="matrix(1,0,0,1,-32,-72)"/>
<circle cx="524.9319722461114" cy="279.94306266710817" r="10" fill="#aaaaff" style="opacity: 0;" transform="matrix(1,0,0,1,22,-78)"/>
<circle cx="589.8445720150878" cy="242.51105956916138" r="10" fill="#aaaaff" style="opacity: 0;" transform="matrix(1,0,0,1,-10,-137)"/>
<circle cx="327.6526017406518" cy="48.9274912559855" r="10" fill="#cccccc" style="opacity: 0;" class="corner" transform="matrix(1,0,0,1,-27,14)"/>
<circle cx="323.36006494091333" cy="156.79229978887435" r="10" fill="#cccccc" style="opacity: 0;" class="corner" transform="matrix(1,0,0,1,-28,7)"/>
<circle cx="430.58949661576025" cy="180.57028697973433" r="10" fill="#cccccc" style="opacity: 0;" class="corner"/>
<circle cx="471.86347344224373" cy="78.69463854616677" r="10" fill="#cccccc" style="opacity: 0;" class="corner"/>
<circle cx="380.6495680396027" cy="21.0785761461127" r="10" fill="#cccccc" style="opacity: 0;" class="corner" transform="matrix(1,0,0,1,9,-12)"/>
<circle cx="233.9553509550496" cy="283.0531940669328" r="10" fill="#cccccc" style="opacity: 0;" class="corner"/>
<circle cx="390.2841705018285" cy="284.2564331224142" r="10" fill="#cccccc" style="opacity: 0;" class="corner" transform="matrix(1,0,0,1,-10,2)"/>
<circle cx="452.86420091125876" cy="235.58307613730173" r="10" fill="#cccccc" style="opacity: 0;" class="corner" transform="matrix(1,0,0,1,13,-1)"/>
<circle cx="187.23086970603447" cy="362.56276990689634" r="10" fill="#cccccc" style="opacity: 0;" class="corner" transform="matrix(1,0,0,1,58,-11)"/>
<circle cx="267.46641233666156" cy="409.71387174015456" r="10" fill="#cccccc" style="opacity: 0;" class="corner" transform="matrix(1,0,0,1,38,-19)"/>
<circle cx="403.70665331492086" cy="375.49670248508494" r="10" fill="#cccccc" style="opacity: 0;" class="corner" transform="matrix(1,0,0,1,-14,10)"/>
<circle cx="423.37232593891827" cy="376.02163884940364" r="10" fill="#cccccc" style="opacity: 0;" class="corner" transform="matrix(1,0,0,1,-14,6)"/>
<circle cx="509.9048042168806" cy="354.28873208090954" r="10" fill="#cccccc" style="opacity: 0;" class="corner" transform="matrix(1,0,0,1,-18,20)"/>
<circle cx="543.2295000934603" cy="272.3225877842591" r="10" fill="#cccccc" style="opacity: 0;" class="corner" transform="matrix(1,0,0,1,-23,49)"/>
<circle cx="463.4398593145464" cy="230.1977597439852" r="10" fill="#cccccc" style="opacity: 0;" class="corner" transform="matrix(1,0,0,1,12,-3)"/>
<circle cx="562.7991403717236" cy="152.4383223948898" r="10" fill="#cccccc" style="opacity: 0;" class="corner" transform="matrix(1,0,0,1,-25,30)"/>
<circle cx="542.5953581313493" cy="88.42683794705329" r="10" fill="#cccccc" style="opacity: 0;" class="corner"/>
<circle cx="472.97959294015953" cy="297.6744564137502" r="10" fill="#cccccc" style="opacity: 0;" class="corner" transform="matrix(1,0,0,1,70,3)"/>
<circle cx="590.5505162068812" cy="281.05249141787795" r="10" fill="#cccccc" style="opacity: 0;" class="corner" transform="matrix(1,0,0,1,19,-11)"/>
<circle cx="624.7741031822059" cy="180.7793720534763" r="10" fill="#cccccc" style="opacity: 0;" class="corner" transform="matrix(1,0,0,1,12,5)"/>
<circle cx="631.8359653987015" cy="168.52323781950756" r="10" fill="#cccccc" style="opacity: 0;" class="corner" transform="matrix(1,0,0,1,9,2)"/>
<circle cx="656.4062877443935" cy="96.5336223777431" r="10" fill="#cccccc" style="opacity: 0;" class="corner" transform="matrix(1,0,0,1,8,4)"/>
<circle cx="590.4695386112793" cy="36.149973490605944" r="10" fill="#cccccc" style="opacity: 0;" class="corner" transform="matrix(1,0,0,1,13,13)"/>
</svg>